<svg width="18" height="21" viewBox="0 0 18 21" fill="none" xmlns="http://www.w3.org/2000/svg">
<path fill-rule="evenodd" clip-rule="evenodd" d="M16 2.5H15V1.5C15 0.95 14.55 0.5 14 0.5C13.45 0.5 13 0.95 13 1.5V2.5H5V1.5C5 0.95 4.55 0.5 4 0.5C3.45 0.5 3 0.95 3 1.5V2.5H2C0.89 2.5 0.01 3.4 0.01 4.5L0 18.5C0 19.6 0.89 20.5 2 20.5H16C17.1 20.5 18 19.6 18 18.5V4.5C18 3.4 17.1 2.5 16 2.5ZM16 17.5C16 18.05 15.55 18.5 15 18.5H3C2.45 18.5 2 18.05 2 17.5V7.5H16V17.5ZM8 9.5H5C4.45 9.5 4 9.95 4 10.5V13.5C4 14.05 4.45 14.5 5 14.5H8C8.55 14.5 9 14.05 9 13.5V10.5C9 9.95 8.55 9.5 8 9.5Z" fill="#757575"/>
</svg>
