<svg width="22" height="15" viewBox="0 0 22 15" fill="none" xmlns="http://www.w3.org/2000/svg">
<path fill-rule="evenodd" clip-rule="evenodd" d="M9.99 3.5C9.99 5.16 8.66 6.5 7 6.5C5.34 6.5 4 5.16 4 3.5C4 1.84 5.34 0.5 7 0.5C8.66 0.5 9.99 1.84 9.99 3.5ZM17.99 3.5C17.99 5.16 16.66 6.5 15 6.5C13.34 6.5 12 5.16 12 3.5C12 1.84 13.34 0.5 15 0.5C16.66 0.5 17.99 1.84 17.99 3.5ZM7 8.5C4.67 8.5 0 9.67 0 12V13.5C0 14.05 0.45 14.5 1 14.5H13C13.55 14.5 14 14.05 14 13.5V12C14 9.67 9.33 8.5 7 8.5ZM14.03 8.55C14.38 8.52 14.71 8.5 15 8.5C17.33 8.5 22 9.67 22 12V13.5C22 14.05 21.55 14.5 21 14.5H15.82C15.93 14.19 16 13.85 16 13.5V12C16 10.53 15.21 9.42 14.07 8.59C14.067 8.58697 14.0639 8.58303 14.0606 8.57872C14.053 8.56881 14.0439 8.55697 14.03 8.55Z" fill="#757575"/>
</svg>
